<?xml version="1.0" standalone="no"?>
<!DOCTYPE svg PUBLIC "-//W3C//DTD SVG 20010904//EN" "http://www.w3.org/TR/2001/REC-SVG-20010904/DTD/svg10.dtd">
<!-- Created using Krita: https://krita.org -->
<svg xmlns="http://www.w3.org/2000/svg" 
    xmlns:xlink="http://www.w3.org/1999/xlink"
    xmlns:krita="http://krita.org/namespaces/svg/krita"
    xmlns:sodipodi="http://sodipodi.sourceforge.net/DTD/sodipodi-0.dtd"
    width="737.28pt"
    height="368.64pt"
    viewBox="0 0 737.28 368.64">
<defs/>
<path id="shape0" transform="matrix(0.72 0 0 0.72 200.159442660663 26.3401174255169)" fill="#144392" stroke-opacity="0" stroke="#000000" stroke-width="0" stroke-linecap="square" stroke-linejoin="bevel" d="M169.917 199.504C164.339 199.458 155.941 196.657 151.365 201.068C148.343 203.981 150.099 208.18 151.342 211.504C154.521 220 158.601 228.257 162.377 236.504C165.272 242.828 169.462 259.87 177.92 260.247C185.502 260.585 191.593 247.828 195.258 242.504C200.984 234.186 208.309 226.49 212.998 217.504C214.826 214.001 216.246 208.259 212.599 205.362C208.799 202.343 200.586 202.6 195.917 202.504C195.917 132.717 163.186 66.6678 102.917 29.3178C79.7867 14.9834 54.4997 6.79975 27.9167 1.88885C17.5097 -0.0337533 1.8677 -3.91925 0.105701 11.5038C-0.695299 18.5166 3.1027 23.8587 9.9167 25.645C19.0157 28.0303 28.7097 28.0971 37.9167 30.3989C55.5647 34.8109 72.4177 42.2918 87.9167 51.7067C138.856 82.6498 169.878 140.3 169.917 199.504Z" sodipodi:nodetypes="cccccccccccccccc"/><path id="shape1" transform="matrix(0.72 0 0 0.72 59.6640892962668 35.9401101490159)" fill="#6989c7" stroke-opacity="0" stroke="#000000" stroke-width="0" stroke-linecap="square" stroke-linejoin="bevel" d="M91.5477 0.264016L80.1287 26.8458L60.5477 37.3072L48.5477 44.4646L21.5477 41.264C15.6552 51.051 -0.425124 68.19 0.426576 80.264C1.00008 88.394 10.5891 94.526 14.2252 101.264C16.636 105.732 15.548 111.359 15.5477 116.264C15.5473 122.9 17.8917 134.393 14.8062 140.264C11.3164 146.903 0.102676 154.481 0.000575939 162.264C-0.0465241 165.857 2.80618 169.315 4.53688 172.264C8.70138 179.359 14.9908 197.757 23.5667 199.945C32.0717 202.116 41.0807 195.148 49.5477 197.968C60.7457 201.697 69.1677 212.989 81.5477 214.264C82.6137 220.457 86.8897 236.537 92.1847 240.236C94.8397 242.091 99.4907 241.264 102.548 241.264C110.947 241.264 129.073 244.699 136.273 240.236C142.876 236.143 143.311 222.604 148.302 216.477C154.037 209.436 168.584 204.125 176.548 199.488C185.744 194.133 203.138 206.072 209.86 198.101C216.291 190.476 219.682 179.75 224.858 171.264C226.865 167.974 230.112 164.44 228.647 160.303C225.577 151.638 213.316 144.941 212.862 135.264C212.479 127.101 210.726 109.554 213.79 102.268C217.113 94.367 230.548 87.786 228.896 78.264C227.383 69.548 218.107 57.967 213.533 50.264C211.795 47.3355 209.903 43.5742 206.374 42.5819C196.755 39.877 185.749 48.0387 176.638 43.0055C168.332 38.4174 154.03 32.4788 148.043 25.1591C142.926 18.9018 142.957 5.67092 136.154 1.29182C132.932 -0.782584 127.207 0.264016 123.548 0.264016Z" sodipodi:nodetypes="cccccccccccccccccccccccccccccccc"/><path id="shape2" transform="matrix(0.72 0 0 0.72 89.8150380900583 70.4499119727634)" fill="#010101" stroke-opacity="0" stroke="#000000" stroke-width="0" stroke-linecap="square" stroke-linejoin="bevel" d="M61.1728 0.762036C-14.7532 11.6387 -22.1872 121.863 51.1728 143.613C60.6218 146.415 71.3768 147.317 81.1728 146.045C91.7658 144.669 102.084 141.1 111.173 135.523C119.127 130.643 126.402 123.902 131.875 116.33C169.496 64.2847 123.939 -8.22966 61.1728 0.762036Z" sodipodi:nodetypes="cccccc"/><path id="shape3" transform="matrix(0.72 0 0 0.72 107.877023597756 89.2623451624055)" fill="#6989c7" stroke-opacity="0" stroke="#000000" stroke-width="0" stroke-linecap="square" stroke-linejoin="bevel" d="M41.5853 0.539864C-3.41773 6.98686 -17.4867 73.2379 27.5853 91.6579C36.5253 95.3119 47.0263 96.1899 56.5853 94.8119C115.988 86.2479 100.809 -7.94414 41.5853 0.539864Z" sodipodi:nodetypes="cccc"/><path id="shape4" transform="matrix(0.72 0 0 0.72 13.7750715657278 175.734584473526)" fill="#144392" stroke-opacity="0" stroke="#000000" stroke-width="0" stroke-linecap="square" stroke-linejoin="bevel" d="M47.2824 58.0145C50.3051 58.0125 53.2819 58.0045 56.2824 57.5895C78.5872 54.5055 55.1291 29.7285 48.787 20.0145C45.2198 14.5505 39.9893 2.07945 33.2392 0.333453C26.5631 -1.39355 23.8726 3.90045 21.4491 9.01445C16.3176 19.8425 10.405 30.3005 5.03552 41.0145C3.06092 44.9545 -1.59528 51.3365 0.554823 55.9055C4.52612 64.3455 17.0728 55.5585 21.0046 62.3075C24.3327 68.0205 24.4069 77.5575 25.9367 84.0145C28.5787 95.1645 32.8889 106.577 37.5941 117.014C59.0603 164.631 103.783 206.116 154.282 221.014C176.38 227.533 200.036 233.056 223.282 230.844C233.613 229.861 247.574 228.361 244.25 214.014C241.428 201.838 228.295 205 219.282 205.014C195.009 205.053 169.261 200.389 147.282 189.756C112.116 172.742 80.4569 144.746 63.402 109.014C55.4557 92.3665 52.5554 75.3675 47.2824 58.0145Z" sodipodi:nodetypes="ccccccccccccccccc"/><path id="shape5" transform="matrix(0.72 0 0 0.72 182.396265077872 183.133704529361)" fill="#6989c7" stroke-opacity="0" stroke="#000000" stroke-width="0" stroke-linecap="square" stroke-linejoin="bevel" d="M157.086 32.327C150.647 32.784 142.365 35.446 136.086 34.335C131.981 33.609 128.591 30.087 125.086 28.038C112.56 20.714 107.613 16.209 104.086 1.32701C95.6273 1.32701 76.6293 -2.25699 69.4803 2.35501C64.3223 5.68101 63.9783 15.317 60.2713 20.113C56.1863 25.399 44.6783 30.324 38.6623 33.389C32.4643 36.547 25.5433 31.861 19.1013 32.761C11.4533 33.829 1.52332 52.277 0.135321 59.327C-1.24968 66.355 8.39432 72.274 10.9363 78.327C13.2413 83.819 11.7383 95.152 11.8613 101.327C12.0263 109.553 2.87332 114.013 0.415321 121.328C-1.47968 126.969 10.6133 148.029 15.6403 151.295C22.0423 155.455 31.8393 147.307 38.9163 151.167C44.7503 154.348 56.1803 159.463 60.2363 164.541C64.2193 169.528 64.4743 178.94 70.2753 182.299C76.0813 185.661 92.4963 184.233 99.0713 183.179C108.371 181.688 106.764 167.128 114.13 162.54C119.899 158.947 129.626 151.675 136.086 150.341C142.38 149.041 151.949 155.275 157.325 150.724C162.376 146.447 173.154 127.701 171.422 121.327C169.591 114.593 162.426 110.898 160.615 104.327C159.023 98.553 160.169 87.535 160.389 81.366C160.692 72.913 173.677 67.861 172.037 59.327C170.268 50.125 161.604 40.475 157.086 32.327Z" sodipodi:nodetypes="ccccccccccccccccccccccccc"/><path id="shape6" transform="matrix(0.72 0 0 0.72 204.374640333552 209.944482987528)" fill="#010101" stroke-opacity="0" stroke="#000000" stroke-width="0" stroke-linecap="square" stroke-linejoin="bevel" d="M49.0623 0.514815C23.0403 4.05882 2.80626 23.4938 0.23226 50.0898C-2.88574 82.3048 25.8443 113.871 59.0623 109.804C71.2603 108.31 82.8383 104.401 92.0613 95.9858C129.86 61.4988 101.192 -6.58418 49.0623 0.514815Z" sodipodi:nodetypes="ccccc"/><path id="shape7" transform="matrix(0.72 0 0 0.72 217.884721932515 222.821644005384)" fill="#6989c7" stroke-opacity="0" stroke="#000000" stroke-width="0" stroke-linecap="square" stroke-linejoin="bevel" d="M29.2983 0.668869C-18.0027 9.02987 -4.18274 82.1499 43.2983 73.5889C90.7353 65.0359 76.6303 -7.69813 29.2983 0.668869Z" sodipodi:nodetypes="ccc"/>
</svg>
